{
	"asset":{
		"generator":"Khronos glTF Blender I/O v3.6.27",
		"version":"2.0"
	},
	"extensionsUsed":[
		"KHR_materials_specular",
		"KHR_materials_ior"
	],
	"scene":0,
	"scenes":[
		{
			"name":"Scene",
			"nodes":[
				0
			]
		}
	],
	"nodes":[
		{
			"mesh":0,
			"name":"Butane.mol",
			"rotation":[
				0.7071068286895752,
				0,
				0,
				0.7071068286895752
			]
		}
	],
	"materials":[
		{
			"doubleSided":true,
			"extensions":{
				"KHR_materials_specular":{
					"specularColorFactor":[
						0.020080160244135427,
						0.020080160244135427,
						0.020080160244135427
					]
				},
				"KHR_materials_ior":{
					"ior":0.0010000000474974513
				}
			},
			"name":"k000000",
			"pbrMetallicRoughness":{
				"baseColorFactor":[
					0,
					0,
					0,
					1
				],
				"metallicFactor":0,
				"roughnessFactor":0.5962674021720886
			}
		},
		{
			"doubleSided":true,
			"extensions":{
				"KHR_materials_specular":{
					"specularColorFactor":[
						0.020080160244135427,
						0.020080160244135427,
						0.020080160244135427
					]
				},
				"KHR_materials_ior":{
					"ior":0.0010000000474974513
				}
			},
			"name":"kffffff",
			"pbrMetallicRoughness":{
				"metallicFactor":0,
				"roughnessFactor":0.5962674021720886
			}
		},
		{
			"doubleSided":true,
			"extensions":{
				"KHR_materials_specular":{
					"specularColorFactor":[
						0.020080160244135427,
						0.020080160244135427,
						0.020080160244135427
					]
				},
				"KHR_materials_ior":{
					"ior":0.0010000000474974513
				}
			},
			"name":"k808080",
			"pbrMetallicRoughness":{
				"baseColorFactor":[
					0.5040000081062317,
					0.5040000081062317,
					0.5040000081062317,
					1
				],
				"metallicFactor":0,
				"roughnessFactor":0.5962674021720886
			}
		}
	],
	"meshes":[
		{
			"name":"Butane.mol",
			"primitives":[
				{
					"attributes":{
						"POSITION":0,
						"NORMAL":1
					},
					"indices":2,
					"material":0
				},
				{
					"attributes":{
						"POSITION":3,
						"NORMAL":4
					},
					"indices":5,
					"material":1
				},
				{
					"attributes":{
						"POSITION":6,
						"NORMAL":7
					},
					"indices":8,
					"material":2
				}
			]
		}
	],
	"accessors":[
		{
			"bufferView":0,
			"componentType":5126,
			"count":4114,
			"max":[
				2.3543999195098877,
				0.43209999799728394,
				0.9409000277519226
			],
			"min":[
				-2.354300022125244,
				-0.43209999799728394,
				-0.9409999847412109
			],
			"type":"VEC3"
		},
		{
			"bufferView":1,
			"componentType":5126,
			"count":4114,
			"type":"VEC3"
		},
		{
			"bufferView":2,
			"componentType":5123,
			"count":15360,
			"type":"SCALAR"
		},
		{
			"bufferView":3,
			"componentType":5126,
			"count":10232,
			"max":[
				2.9952001571655273,
				1.1690000295639038,
				1.441499948501587
			],
			"min":[
				-2.995300054550171,
				-1.1753000020980835,
				-1.44159996509552
			],
			"type":"VEC3"
		},
		{
			"bufferView":4,
			"componentType":5126,
			"count":10232,
			"type":"VEC3"
		},
		{
			"bufferView":5,
			"componentType":5123,
			"count":38400,
			"type":"SCALAR"
		},
		{
			"bufferView":6,
			"componentType":5126,
			"count":28479,
			"max":[
				2.821200132369995,
				0.9950000047683716,
				1.2674999237060547
			],
			"min":[
				-2.8213000297546387,
				-1.0012999773025513,
				-1.2675999402999878
			],
			"type":"VEC3"
		},
		{
			"bufferView":7,
			"componentType":5126,
			"count":28479,
			"type":"VEC3"
		},
		{
			"bufferView":8,
			"componentType":5123,
			"count":102648,
			"type":"SCALAR"
		}
	],
	"bufferViews":[
		{
			"buffer":0,
			"byteLength":49368,
			"byteOffset":0,
			"target":34962
		},
		{
			"buffer":0,
			"byteLength":49368,
			"byteOffset":49368,
			"target":34962
		},
		{
			"buffer":0,
			"byteLength":30720,
			"byteOffset":98736,
			"target":34963
		},
		{
			"buffer":0,
			"byteLength":122784,
			"byteOffset":129456,
			"target":34962
		},
		{
			"buffer":0,
			"byteLength":122784,
			"byteOffset":252240,
			"target":34962
		},
		{
			"buffer":0,
			"byteLength":76800,
			"byteOffset":375024,
			"target":34963
		},
		{
			"buffer":0,
			"byteLength":341748,
			"byteOffset":451824,
			"target":34962
		},
		{
			"buffer":0,
			"byteLength":341748,
			"byteOffset":793572,
			"target":34962
		},
		{
			"buffer":0,
			"byteLength":205296,
			"byteOffset":1135320,
			"target":34963
		}
	],
	"buffers":[
		{
			"byteLength":1340616,
			"uri":"data:application/octet-stream;base64,"
		}
	]
}
